0
SECTION
2
HEADER
9
$INSUNITS
70
4
0
ENDSEC
0
SECTION
2
TABLES
0
TABLE
2
LTYPE
0
LTYPE
72
65
70
64
2
CONTINUOUS
3
______
73
0
40
0
0
ENDTAB
0
TABLE
2
LAYER
0
ENDTAB
0
ENDSEC
0
SECTION
2
ENTITIES
0
LINE
8
0
10
-7.4827965
20
28.870188
11
11.3874459
21
26.653444
0
LINE
8
0
10
-7.4827965
20
28.870188
11
1.5475185
21
105.7415963
0
LINE
8
0
10
20.4177609
20
103.5248523
11
1.5475185
21
105.7415963
0
LINE
8
0
10
10.8040922
20
21.6875907
11
32.2565782
21
19.1675028
0
LINE
8
0
10
32.2565782
20
19.1675028
11
32.8399319
21
24.1333561
0
LINE
8
0
10
11.3874459
20
26.653444
11
10.8040922
21
21.6875907
0
LINE
8
0
10
40.9213935
20
115.2124974
11
22.0511512
21
117.4292414
0
LINE
8
0
10
22.0511512
20
117.4292414
11
20.4177609
21
103.5248523
0
LINE
8
0
10
32.8399319
20
24.1333561
11
49.1279305
21
22.219956
0
LINE
8
0
10
62.3738795
20
112.6924095
11
62.9572332
21
117.6582627
0
LINE
8
0
10
62.9572332
20
117.6582627
11
41.5047472
21
120.1783506
0
LINE
8
0
10
41.5047472
20
120.1783506
11
40.9213935
21
115.2124974
0
LINE
8
0
10
48.5445768
20
17.2541027
11
67.4148192
21
15.0373587
0
LINE
8
0
10
49.1279305
20
22.219956
11
48.5445768
21
17.2541027
0
LINE
8
0
10
80.5440975
20
104.5166416
11
81.2441219
21
110.4756655
0
LINE
8
0
10
81.2441219
20
110.4756655
11
62.3738795
21
112.6924095
0
LINE
8
0
10
66.7147948
20
9.0783348
11
85.5850371
21
6.8615908
0
LINE
8
0
10
67.4148192
20
15.0373587
11
66.7147948
21
9.0783348
0
LINE
8
0
10
91.7140712
20
36.7506347
11
99.4143398
21
102.2998976
0
LINE
8
0
10
99.4143398
20
102.2998976
11
80.5440975
21
104.5166416
0
LINE
8
0
10
84.5350005
20
-2.076945
11
105.9874865
21
-4.5970329
0
LINE
8
0
10
105.9874865
20
-4.5970329
11
110.5843135
21
34.5338907
0
LINE
8
0
10
85.5850371
20
6.8615908
11
84.5350005
21
-2.076945
0
LINE
8
0
10
110.5843135
20
34.5338907
11
91.7140712
21
36.7506347
0
LINE
8
0
10
220.3821001
20
26.653444
11
239.2523425
21
28.870188
0
LINE
8
0
10
230.2220275
20
105.7415963
11
239.2523425
21
28.870188
0
LINE
8
0
10
230.2220275
20
105.7415963
11
211.3517851
21
103.5248523
0
LINE
8
0
10
199.5129678
20
19.1675028
11
220.9654538
21
21.6875907
0
LINE
8
0
10
220.9654538
20
21.6875907
11
220.3821001
21
26.653444
0
LINE
8
0
10
198.9296141
20
24.1333561
11
199.5129678
21
19.1675028
0
LINE
8
0
10
211.3517851
20
103.5248523
11
209.7183948
21
117.4292414
0
LINE
8
0
10
209.7183948
20
117.4292414
11
190.8481525
21
115.2124974
0
LINE
8
0
10
182.6416155
20
22.219956
11
198.9296141
21
24.1333561
0
LINE
8
0
10
190.8481525
20
115.2124974
11
190.2647988
21
120.1783506
0
LINE
8
0
10
190.2647988
20
120.1783506
11
168.8123128
21
117.6582627
0
LINE
8
0
10
168.8123128
20
117.6582627
11
169.3956665
21
112.6924095
0
LINE
8
0
10
164.3547268
20
15.0373587
11
183.2249692
21
17.2541027
0
LINE
8
0
10
183.2249692
20
17.2541027
11
182.6416155
21
22.219956
0
LINE
8
0
10
169.3956665
20
112.6924095
11
150.5254241
21
110.4756655
0
LINE
8
0
10
150.5254241
20
110.4756655
11
151.2254485
21
104.5166416
0
LINE
8
0
10
146.1845089
20
6.8615908
11
165.0547512
21
9.0783348
0
LINE
8
0
10
165.0547512
20
9.0783348
11
164.3547268
21
15.0373587
0
LINE
8
0
10
132.3552062
20
102.2998976
11
140.0554748
21
36.7506347
0
LINE
8
0
10
151.2254485
20
104.5166416
11
132.3552062
21
102.2998976
0
LINE
8
0
10
125.7820595
20
-4.5970329
11
147.2345455
21
-2.076945
0
LINE
8
0
10
147.2345455
20
-2.076945
11
146.1845089
21
6.8615908
0
LINE
8
0
10
121.1852325
20
34.5338907
11
125.7820595
21
-4.5970329
0
LINE
8
0
10
140.0554748
20
36.7506347
11
121.1852325
21
34.5338907
0
ENDSEC
0
EOF