0
SECTION
2
HEADER
9
$INSUNITS
70
4
0
ENDSEC
0
SECTION
2
TABLES
0
TABLE
2
LTYPE
0
LTYPE
72
65
70
64
2
CONTINUOUS
3
______
73
0
40
0
0
ENDTAB
0
TABLE
2
LAYER
0
ENDTAB
0
ENDSEC
0
SECTION
2
ENTITIES
0
LINE
8
0
10
-9.6995405
20
9.9999456
11
9.1707019
21
7.7832016
0
LINE
8
0
10
-9.6995405
20
9.9999456
11
-0.6692255
21
86.871354
0
LINE
8
0
10
18.2010169
20
84.65461
11
-0.6692255
21
86.871354
0
LINE
8
0
10
8.5873482
20
2.8173484
11
30.0398342
21
0.2972605
0
LINE
8
0
10
30.0398342
20
0.2972605
11
30.6231879
21
5.2631137
0
LINE
8
0
10
9.1707019
20
7.7832016
11
8.5873482
21
2.8173484
0
LINE
8
0
10
38.7046495
20
96.3422551
11
19.8344072
21
98.5589991
0
LINE
8
0
10
19.8344072
20
98.5589991
11
18.2010169
21
84.65461
0
LINE
8
0
10
30.6231879
20
5.2631137
11
46.9111865
21
3.3497136
0
LINE
8
0
10
60.1571355
20
93.8221671
11
60.7404892
21
98.7880204
0
LINE
8
0
10
60.7404892
20
98.7880204
11
39.2880032
21
101.3081083
0
LINE
8
0
10
39.2880032
20
101.3081083
11
38.7046495
21
96.3422551
0
LINE
8
0
10
46.3278328
20
-1.6161396
11
65.1980752
21
-3.8328836
0
LINE
8
0
10
46.9111865
20
3.3497136
11
46.3278328
21
-1.6161396
0
LINE
8
0
10
78.3273535
20
85.6463992
11
79.0273779
21
91.6054231
0
LINE
8
0
10
79.0273779
20
91.6054231
11
60.1571355
21
93.8221671
0
LINE
8
0
10
64.4980508
20
-9.7919075
11
83.3682931
21
-12.0086515
0
LINE
8
0
10
65.1980752
20
-3.8328836
11
64.4980508
21
-9.7919075
0
LINE
8
0
10
89.7306687
20
19.8667337
11
97.1975958
21
83.4296552
0
LINE
8
0
10
97.1975958
20
83.4296552
11
78.3273535
21
85.6463992
0
LINE
8
0
10
82.5515979
20
-18.9608461
11
104.0040839
21
-21.480934
0
LINE
8
0
10
104.0040839
20
-21.480934
11
108.6009109
21
17.6499897
0
LINE
8
0
10
83.3682931
20
-12.0086515
11
82.5515979
21
-18.9608461
0
LINE
8
0
10
108.6009109
20
17.6499897
11
89.7306687
21
19.8667337
0
LINE
8
0
10
214.1985509
20
7.7832016
11
233.0687933
21
9.9999456
0
LINE
8
0
10
224.0384783
20
86.871354
11
233.0687933
21
9.9999456
0
LINE
8
0
10
224.0384783
20
86.871354
11
205.1682359
21
84.65461
0
LINE
8
0
10
193.3294186
20
0.2972605
11
214.7819046
21
2.8173484
0
LINE
8
0
10
214.7819046
20
2.8173484
11
214.1985509
21
7.7832016
0
LINE
8
0
10
192.7460649
20
5.2631137
11
193.3294186
21
0.2972605
0
LINE
8
0
10
205.1682359
20
84.65461
11
203.5348456
21
98.5589991
0
LINE
8
0
10
203.5348456
20
98.5589991
11
184.6646033
21
96.3422551
0
LINE
8
0
10
176.4580663
20
3.3497136
11
192.7460649
21
5.2631137
0
LINE
8
0
10
184.6646033
20
96.3422551
11
184.0812496
21
101.3081083
0
LINE
8
0
10
184.0812496
20
101.3081083
11
162.6287636
21
98.7880204
0
LINE
8
0
10
162.6287636
20
98.7880204
11
163.2121173
21
93.8221671
0
LINE
8
0
10
158.1711776
20
-3.8328836
11
177.04142
21
-1.6161396
0
LINE
8
0
10
177.04142
20
-1.6161396
11
176.4580663
21
3.3497136
0
LINE
8
0
10
163.2121173
20
93.8221671
11
144.3418749
21
91.6054231
0
LINE
8
0
10
144.3418749
20
91.6054231
11
145.0418993
21
85.6463992
0
LINE
8
0
10
140.0009597
20
-12.0086515
11
158.871202
21
-9.7919075
0
LINE
8
0
10
158.871202
20
-9.7919075
11
158.1711776
21
-3.8328836
0
LINE
8
0
10
126.171657
20
83.4296552
11
133.6385841
21
19.8667337
0
LINE
8
0
10
145.0418993
20
85.6463992
11
126.171657
21
83.4296552
0
LINE
8
0
10
119.3651689
20
-21.480934
11
140.8176549
21
-18.9608461
0
LINE
8
0
10
140.8176549
20
-18.9608461
11
140.0009597
21
-12.0086515
0
LINE
8
0
10
114.7683419
20
17.6499897
11
119.3651689
21
-21.480934
0
LINE
8
0
10
133.6385841
20
19.8667337
11
114.7683419
21
17.6499897
0
ENDSEC
0
EOF